#!OML:ASF \\sashay\E\Suitcase\Project 1\Capture day 1\Session 1\Male1.ASF
:FULLY-SPECIFIED
:DEGREES
49
root 0.348889 17.4321 19.6315 10.0074 -3.37509 0.955879
lowerback 15.5466 -1.69275 10.4453
upperback 6.06827 -0.294406 12.5238
thorax -2.14953 -0.189666 7.71139
lowerneck -11.0797 -7.96829 -3.52675
upperneck 32.9581 -9.07795 -5.58714
head 12.6842 -5.07344 -2.77347
rclavicle 5.88403e-014 1.30403e-013
rhumerus -9.75286 -11.7184 -57.1489
rradius 25.495
rwrist -6.06815
rhand -16.9803 13.7247
rfingers 7.12502
rthumb 9.25433 -16.0522
lclavicle 5.88403e-014 1.30403e-013
lhumerus -32.6394 -13.7817 99.9574
lradius 53.6432
lwrist -2.23498
lhand -5.1403 41.5421
lfingers 7.12502
lthumb 20.6586 70.4627
rfemur -17.9795 3.36291 19.2997
rtibia 22.8234
rfoot -11.9328 -10.7846
rtoes 10.3975
lfemur -10.635 -0.930269 -18.1841
ltibia 13.1319
lfoot -12.0387 5.57718
ltoes -8.35051
50
root 0.345063 17.4262 19.6295 9.94351 -3.51867 1.11215
lowerback 15.6548 -1.62423 10.2038
upperback 6.05264 -0.222168 12.3807
thorax -2.23302 -0.155678 7.67331
lowerneck -11.1849 -7.90002 -3.25947
upperneck 32.8617 -8.91834 -5.9637
head 12.6283 -5.0229 -2.93622
rclavicle -3.33958e-014 -5.40694e-014
rhumerus -10.1216 -12.6811 -57.4324
rradius 25.86
rwrist -5.83838
rhand -17.5913 14.3923
rfingers 7.12502
rthumb 8.66473 -15.4098
lclavicle -3.33958e-014 -5.40694e-014
lhumerus -32.6268 -13.768 99.8586
lradius 53.5186
lwrist -2.59169
lhand -5.28386 41.749
lfingers 7.12502
lthumb 20.5207 70.6845
rfemur -17.8882 3.37235 19.1661
rtibia 22.846
rfoot -12.3902 -10.5688
rtoes 9.03011
lfemur -10.6213 -0.888126 -18.3689
ltibia 13.2758
lfoot -12.7776 5.71733
ltoes -9.04919
51
root 0.345422 17.4242 19.6357 9.84097 -3.51827 1.00977
lowerback 15.6956 -1.64969 10.3377
upperback 6.05719 -0.230264 12.3538
thorax -2.24886 -0.158355 7.57035
lowerneck -11.2389 -7.83026 -3.38913
upperneck 32.8057 -8.75001 -6.06134
head 12.6242 -4.97841 -2.93026
rclavicle -1.03368e-013 -1.27222e-013
rhumerus -10.5153 -12.4826 -57.4759
rradius 26.2044
rwrist -6.16154
rhand -17.8078 14.5541
rfingers 7.12502
rthumb 8.45581 -15.2567
lclavicle -1.03368e-013 -1.27222e-013
lhumerus -32.49 -13.4768 99.8552
lradius 53.2463
lwrist -2.7412
lhand -4.99082 41.4692
lfingers 7.12502
lthumb 20.8022 70.374
rfemur -17.7439 3.25659 19.2766
rtibia 22.7496
rfoot -11.8893 -10.566
rtoes 11.3692
lfemur -10.5201 -0.886319 -18.2752
ltibia 13.4017
lfoot -11.96 5.80537
ltoes -10.4835
52
root 0.338902 17.4223 19.6409 9.70668 -3.76052 1.19719
lowerback 15.8081 -1.63869 9.97092
upperback 6.14315 -0.273232 12.1197
thorax -2.21821 -0.180088 7.51803
lowerneck -11.3728 -7.66445 -2.9275
upperneck 32.6144 -8.55261 -6.26561
head 12.5338 -4.86825 -3.05063
rclavicle -1.59028e-014 -7.63333e-014
rhumerus -10.6646 -11.846 -57.9644
rradius 26.3923
rwrist -6.92014
rhand -18.3432 14.5515
rfingers 7.12502
rthumb 7.93907 -15.2794
lclavicle -1.59028e-014 -7.63333e-014
lhumerus -32.4699 -13.2691 99.4686
lradius 53.285
lwrist -2.67454
lhand -5.87255 41.5808
lfingers 7.12502
lthumb 19.9549 70.5762
rfemur -17.61 3.36794 19.0798
rtibia 22.821
rfoot -12.457 -10.2133
rtoes 9.92213
lfemur -10.3104 -0.787195 -18.4903
ltibia 13.3376
lfoot -12.8261 5.89712
ltoes -10.3282
53
root 0.333637 17.4304 19.6454 9.72851 -3.80962 1.16717
lowerback 15.7274 -1.66099 9.88679
upperback 6.15996 -0.334801 12.0705
thorax -2.15392 -0.210106 7.51656
lowerneck -11.1569 -7.5409 -2.95279
upperneck 32.1807 -8.34078 -6.37929
head 12.3115 -4.79684 -3.02393
rclavicle -2.06736e-014 -5.08889e-014
rhumerus -10.6017 -12.4775 -58.2443
rradius 26.1525
rwrist -6.40638
rhand -18.587 15.177
rfingers 7.12502
rthumb 7.70377 -14.6626
lclavicle -2.06736e-014 -5.08889e-014
lhumerus -32.3649 -13.1895 99.3772
lradius 52.9921
lwrist -2.72458
lhand -6.39293 41.3485
lfingers 7.12502
lthumb 19.4546 70.3952
rfemur -17.6068 3.34175 19.1245
rtibia 22.676
rfoot -11.8373 -10.3954
rtoes 10.7259
lfemur -10.3735 -0.841116 -18.4358
ltibia 13.419
lfoot -12.5867 5.93753
ltoes -8.86946
54
root 0.323434 17.4231 19.6405 9.55052 -4.15637 1.65378
lowerback 15.9387 -1.46943 9.14505
upperback 6.19659 -0.170661 11.8427
thorax -2.24569 -0.13467 7.65081
lowerneck -11.4011 -7.5439 -2.81972
upperneck 32.3609 -8.32801 -6.49726
head 12.4215 -4.79061 -3.11202
rclavicle 6.36111e-015 -6.67916e-014
rhumerus -11.223 -12.6162 -58.4192
rradius 26.861
rwrist -6.99777
rhand -18.6082 15.1399
rfingers 7.12502
rthumb 7.6833 -14.7005
lclavicle 6.36111e-015 -6.67916e-014
lhumerus -32.3065 -13.1229 99.2164
lradius 52.8633
lwrist -2.86471
lhand -6.5916 41.5559
lfingers 7.12502
lthumb 19.2636 70.6219
rfemur -17.3384 3.57637 18.6171
rtibia 22.5269
rfoot -12.1345 -10.2462
rtoes 9.68126
lfemur -10.2735 -0.941204 -18.9511
ltibia 13.4975
lfoot -12.0133 6.17781
ltoes -9.03047
55
root 0.314562 17.4339 19.6485 9.61379 -4.06714 1.13103
lowerback 15.8304 -1.53178 9.58742
upperback 6.18085 -0.200808 11.9472
thorax -2.19834 -0.146423 7.52243
lowerneck -11.4893 -7.52387 -2.9355
upperneck 32.2568 -8.21785 -6.65307
head 12.4003 -4.77754 -3.13671
rclavicle -3.49861e-014 2.8625e-014
rhumerus -11.8159 -11.4962 -58.5133
rradius 27.6262
rwrist -7.56308
rhand -18.9131 14.5174
rfingers 7.12502
rthumb 7.38902 -15.3336
lclavicle -3.49861e-014 2.8625e-014
lhumerus -32.3602 -12.5248 99.1832
lradius 52.9831
lwrist -3.05172
lhand -6.35664 41.5226
lfingers 7.12502
lthumb 19.4895 70.5659
rfemur -17.2147 3.57473 19.2393
rtibia 22.2668
rfoot -11.7373 -10.4246
rtoes 10.5469
lfemur -10.4017 -0.963251 -18.3107
ltibia 13.6707
lfoot -12.727 6.0898
ltoes -7.11294
56
root 0.311966 17.4382 19.6518 9.56245 -4.01839 1.28325
lowerback 15.8478 -1.67978 9.37339
upperback 6.15501 -0.423542 11.7874
thorax -2.22484 -0.257077 7.50315
lowerneck -11.419 -7.30896 -3.16609
upperneck 32.1966 -7.92409 -6.42508
head 12.3963 -4.64842 -2.96962
rclavicle 5.08889e-014 6.04305e-014
rhumerus -11.625 -10.4151 -58.874
rradius 27.1459
rwrist -8.293
rhand -19.24 14.91
rfingers 7.12502
rthumb 7.07351 -14.9518
lclavicle 5.08889e-014 6.04305e-014
lhumerus -32.3832 -12.1956 98.9193
lradius 52.8199
lwrist -2.72683
lhand -6.43625 42.091
lfingers 7.12502
lthumb 19.4129 71.1419
rfemur -16.9967 3.5949 19.0716
rtibia 22.0126
rfoot -12.0964 -10.3441
rtoes 9.69292
lfemur -10.4833 -1.17363 -18.4388
ltibia 13.8722
lfoot -11.7956 6.12102
ltoes -7.72769
57
root 0.302315 17.4431 19.6566 9.5649 -4.10522 1.23251
lowerback 15.8215 -1.62796 9.2821
upperback 6.12114 -0.371298 11.727
thorax -2.25238 -0.231817 7.47536
lowerneck -11.4352 -7.26013 -2.99292
upperneck 32.123 -7.82241 -6.66073
head 12.3493 -4.61504 -3.06888
rclavicle -2.06736e-014 -6.36111e-015
rhumerus -12.0797 -10.7102 -58.9736
rradius 27.317
rwrist -7.98708
rhand -19.0225 15.0716
rfingers 7.12502
rthumb 7.28348 -14.783
lclavicle -2.06736e-014 -6.36111e-015
lhumerus -32.4014 -12.0755 98.8373
lradius 52.6541
lwrist -2.87763
lhand -6.767 41.9463
lfingers 7.12502
lthumb 19.0949 71.029
rfemur -16.8072 3.60691 19.1745
rtibia 21.6977
rfoot -11.7165 -10.42
rtoes 12.1385
lfemur -10.557 -1.21362 -18.3338
ltibia 14.0157
lfoot -11.9881 6.16313
ltoes -4.74608
